<svg width="15" height="16" viewBox="0 0 15 16" fill="none" xmlns="http://www.w3.org/2000/svg">
<path d="M6.39333 12.9649L7.33843 13.1927L10.5284 6.95935L10.9009 6.23156H10.0833H8.38333V2.69823L7.44144 2.46429L4.14144 8.69762L3.75288 9.43156H4.58333H6.39333V12.9649ZM7.33333 14.6649C6.38396 14.6649 5.49835 14.4851 4.67143 14.1283C3.83481 13.7673 3.11204 13.2798 2.49855 12.6663C1.88507 12.0529 1.39759 11.3301 1.03658 10.4935C0.679761 9.66654 0.5 8.78093 0.5 7.83156C0.5 6.88219 0.679761 5.99658 1.03658 5.16966C1.39759 4.33304 1.88507 3.61027 2.49855 2.99678C3.11204 2.3833 3.83481 1.89582 4.67143 1.53481C5.49835 1.17799 6.38396 0.99823 7.33333 0.99823C8.2827 0.99823 9.16831 1.17799 9.99524 1.53481C10.8319 1.89582 11.5546 2.3833 12.1681 2.99678C12.7816 3.61027 13.2691 4.33304 13.6301 5.16966C13.9869 5.99658 14.1667 6.88219 14.1667 7.83156C14.1667 8.78093 13.9869 9.66654 13.6301 10.4935C13.2691 11.3301 12.7816 12.0529 12.1681 12.6663C11.5546 13.2798 10.8319 13.7673 9.99524 14.1283C9.16831 14.4851 8.2827 14.6649 7.33333 14.6649Z" fill="#894189" stroke="black"/>
<path d="M6.76667 12.4982L7.71177 12.726L10.6118 7.05931L10.9842 6.33152H10.1667H8.66667V3.16486L7.72477 2.93091L4.72477 8.59758L4.33621 9.33152H5.16667H6.76667V12.4982ZM7.66667 13.9982C6.80952 13.9982 6.01057 13.8359 5.26476 13.5141C4.50925 13.1881 3.85704 12.7481 3.30355 12.1946C2.75007 11.6412 2.31009 10.9889 1.98408 10.2334C1.66226 9.48761 1.5 8.68867 1.5 7.83152C1.5 6.97438 1.66226 6.17543 1.98408 5.42962C2.31009 4.67411 2.75007 4.02189 3.30355 3.46841C3.85704 2.91492 4.50925 2.47495 5.26476 2.14894C6.01057 1.82712 6.80952 1.66486 7.66667 1.66486C8.52381 1.66486 9.32276 1.82712 10.0686 2.14894C10.8241 2.47495 11.4763 2.91492 12.0298 3.46841C12.5833 4.02189 13.0232 4.67411 13.3492 5.42962C13.6711 6.17543 13.8333 6.97438 13.8333 7.83152C13.8333 8.68867 13.6711 9.48761 13.3492 10.2334C13.0232 10.9889 12.5833 11.6412 12.0298 12.1946C11.4763 12.7481 10.8241 13.1881 10.0686 13.5141C9.32276 13.8359 8.52381 13.9982 7.66667 13.9982Z" fill="#894189" stroke="black"/>
</svg>
