<svg width="24" height="21" viewBox="0 0 24 21" fill="none" xmlns="http://www.w3.org/2000/svg">
<path d="M12 20.4976C11.9451 20.4976 11.891 20.4856 11.8414 20.4626L11.8251 20.4517L11.7963 20.4394L11.793 20.4376C11.7928 20.4375 11.7926 20.4374 11.7924 20.4373C11.6469 20.3572 11.5026 20.2751 11.3595 20.1909C9.61461 19.1539 7.98391 17.9359 6.49445 16.557C3.84361 14.0834 1.125 10.4909 1.125 6.12319C1.125 3.00322 3.75549 0.498191 6.96933 0.498197L6.97178 0.498185C7.86117 0.493828 8.74009 0.690036 9.54319 1.07221C10.3463 1.45439 11.0529 2.01271 11.6104 2.70564L12 3.18977L12.3896 2.70564C12.9472 2.01257 13.654 1.45416 14.4573 1.07198C15.2606 0.689795 16.1397 0.493666 17.0293 0.498191H17.0318C20.2444 0.498191 22.875 3.00316 22.875 6.12319C22.875 10.492 20.1565 14.0845 17.5059 16.5555C16.0161 17.9348 14.3851 19.1531 12.6397 20.1902C12.4968 20.2746 12.3527 20.357 12.2075 20.4373C12.2074 20.4374 12.2073 20.4374 12.2072 20.4375C12.2069 20.4377 12.2065 20.4379 12.2061 20.4381L12.1766 20.4537C12.1222 20.4825 12.0616 20.4976 12 20.4976Z" fill="#894189" stroke="black"/>
</svg>
